# xmcd
#
# Track frame offsets:
# 150
# 10412
# 19905
# 34495
# 48735
# 60122
# 79112
# 91467
# 110617
# 119017
# 131162
# 144937
#
# Disc length: 2136 seconds
#
#
# Revision: 2
# Processed by: cddbd v1.5.1PL0 Copyright (c) Steve Scherf et al.
# Submitted via: FreeRIP 2.70 
#
DISCID=a708560c
DTITLE=Various Artist - Bluegrass Greats
DYEAR=1997
DGENRE=Bluegrass
TTITLE0=Del McCoury - Trainwreck of Emotion
TTITLE1=Ricky Skaggs - Lost and I'll Never Find the Way
TTITLE2=Beth and April Stevens - In My Time of Dying
TTITLE3=Jeff White - I Never Knew
TTITLE4=Longview - There's a Brighter Mansion over There
TTITLE5=Lynn Morris - Mama's Hand
TTITLE6=Wyatt Rice and Santa Cruz - Picture in a Tear
TTITLE7=Cox Family - Everybody's Reaching Out for Someone
TTITLE8=Jim and Jesse and the Virginia Boys - Hard Hearted
TTITLE9=James King - Indecision
TTITLE10=IIIrd Time Out - I'm Working on the Road to Gloryland
TTITLE11=Johnson Mountain Boys - My Better Years
EXTD=
EXTT0=
EXTT1=(with Pete Rowan)
EXTT2=
EXTT3=
EXTT4=(James King, Dudley Connell, Joe Mullings, Don Rigsby, Glen Duncan, Marshall Wilborn)
EXTT5=
EXTT6=
EXTT7=
EXTT8=
EXTT9=
EXTT10=(with Earl Skruggs)
EXTT11=
PLAYORDER=
